<?xml version="1.0" standalone="no"?>
<!DOCTYPE svg PUBLIC "-//W3C//DTD SVG 20010904//EN"
 "http://www.w3.org/TR/2001/REC-SVG-20010904/DTD/svg10.dtd">
<svg version="1.0" xmlns="http://www.w3.org/2000/svg"
 width="1024.000000pt" height="1024.000000pt" viewBox="0 0 1024.000000 1024.000000"
 preserveAspectRatio="xMidYMid meet">

<g transform="translate(0.000000,1024.000000) scale(0.100000,-0.100000)"
fill="#000000" stroke="none">
<path d="M6185 8810 c-361 -28 -725 -105 -1023 -216 -498 -186 -931 -460
-1307 -825 l-100 -97 -105 16 c-158 23 -634 22 -800 -1 -376 -54 -661 -142
-995 -307 -494 -244 -914 -613 -1218 -1072 -280 -421 -441 -865 -509 -1403
-18 -147 -15 -550 6 -710 77 -591 287 -1096 650 -1565 104 -134 370 -403 505
-510 400 -316 844 -524 1331 -624 307 -63 197 -59 2125 -64 1831 -3 1940 -2
2220 39 1019 146 1936 718 2517 1569 776 1137 859 2594 217 3810 -575 1090
-1668 1826 -2894 1950 -151 15 -487 20 -620 10z m636 -724 c737 -104 1366
-441 1858 -996 375 -423 623 -963 713 -1550 32 -211 32 -629 0 -840 -111 -727
-459 -1365 -1006 -1843 -456 -398 -981 -632 -1616 -719 -144 -19 -593 -16
-750 6 -350 48 -626 129 -905 266 -301 147 -431 246 -800 610 -1179 1162
-1444 1428 -1466 1470 -20 37 -24 60 -24 130 0 76 3 92 33 152 40 82 111 149
190 178 46 18 72 21 137 18 143 -8 100 30 980 -854 809 -812 855 -854 1050
-974 158 -97 390 -200 565 -252 395 -115 834 -122 1235 -18 877 226 1537 957
1695 1877 83 481 17 943 -196 1372 -125 252 -258 438 -458 636 -368 365 -820
585 -1346 656 -120 16 -448 16 -560 0 -340 -48 -644 -153 -903 -312 l-99 -61
-36 27 c-151 110 -378 249 -514 316 -38 18 -68 37 -68 41 0 12 195 156 309
228 396 250 854 406 1321 450 133 12 534 4 661 -14z m-3216 -1120 c319 -51
633 -165 904 -328 223 -135 296 -200 899 -807 652 -656 627 -625 627 -776 0
-78 -4 -97 -27 -140 -59 -111 -164 -176 -296 -183 -147 -8 -100 -46 -782 633
-453 451 -624 615 -680 652 -229 151 -483 247 -765 289 -150 22 -428 15 -570
-16 -438 -93 -833 -344 -1088 -693 -316 -430 -415 -985 -268 -1494 189 -654
715 -1137 1367 -1254 93 -17 174 -23 374 -26 l255 -5 195 -192 c107 -105 265
-254 350 -330 85 -76 162 -145 170 -153 24 -22 -1235 -12 -1370 11 -367 62
-674 180 -957 365 -166 109 -259 185 -403 330 -369 371 -605 840 -686 1366
-26 169 -26 531 0 700 41 267 110 483 231 730 367 745 1092 1247 1929 1335
119 13 474 4 591 -14z"/>
</g>
</svg>
